<svg width="63" height="62" viewBox="0 0 63 62" fill="none" xmlns="http://www.w3.org/2000/svg">
<g clip-path="url(#clip0_2645_478)" filter="url(#filter0_d_2645_478)">
<g clip-path="url(#clip1_2645_478)">
<g clip-path="url(#clip2_2645_478)">
<path d="M57.6004 2.35627e-08C57.6003 2.35627e-08 57.6001 2.35627e-08 57.6 2.35627e-08H5.4C4.90309 -0.000112476 4.50011 0.402637 4.5 0.89955C4.5 0.899662 4.5 0.899887 4.5 0.9V18.9H6.3V1.8H56.7V21.6H25.2V23.4H57.6C58.0969 23.4001 58.4999 22.9974 58.5 22.5004C58.5 22.5003 58.5 22.5001 58.5 22.5V0.9C58.5001 0.403087 58.0974 0.000112524 57.6004 2.35627e-08Z" fill="#241F1F"/>
</g>
</g>
<g clip-path="url(#clip3_2645_478)">
<g clip-path="url(#clip4_2645_478)">
<path d="M52.1992 4.5H34.1992V6.3H52.1992V4.5Z" fill="#241F1F"/>
</g>
</g>
<g clip-path="url(#clip5_2645_478)">
<g clip-path="url(#clip6_2645_478)">
<path d="M54.9004 9.8999H36.9004V11.6999H54.9004V9.8999Z" fill="#241F1F"/>
</g>
</g>
<g clip-path="url(#clip7_2645_478)">
<g clip-path="url(#clip8_2645_478)">
<path d="M51.3008 15.2998H33.3008V17.0998H51.3008V15.2998Z" fill="#241F1F"/>
</g>
</g>
<g clip-path="url(#clip9_2645_478)">
<g clip-path="url(#clip10_2645_478)">
<path d="M33.2282 7.75967C32.6121 6.27861 30.912 5.57751 29.431 6.19367C29.4057 6.20425 29.3805 6.21505 29.3555 6.2263L22.0579 10.0119C22.3457 9.41545 22.4967 8.76227 22.5 8.1001C22.5 5.61486 20.4852 3.6001 18 3.6001C15.5148 3.6001 13.5 5.61486 13.5 8.1001C13.5034 9.07693 13.8277 10.0256 14.4231 10.8001H14.3856C11.831 10.8172 9.55046 12.4054 8.64855 14.7956L6.246 23.0767C5.67405 24.5623 6.41475 26.2305 7.90054 26.8024C8.57801 27.0632 9.32895 27.0588 10.0034 26.7901C10.7783 26.4779 11.3813 25.8474 11.6588 25.0595L12.6 22.0642V35.0897C11.8256 34.4945 10.8768 34.1702 9.9 34.1667C7.41848 34.163 5.40371 36.1717 5.4 38.6533C5.3982 39.8686 5.8887 41.0328 6.75979 41.8804C5.37739 42.5866 4.5054 44.0059 4.5 45.5582V53.1001C4.49989 53.597 4.90264 54 5.39955 54.0001C5.39966 54.0001 5.39989 54.0001 5.4 54.0001H14.4C14.8969 54.0002 15.2999 53.5975 15.3 53.1005C15.3 53.1004 15.3 53.1002 15.3 53.1001V45.5582C15.2956 44.2826 14.703 43.0804 13.694 42.3001H20.5062C19.497 43.0804 18.9044 44.2826 18.9001 45.5582V53.1001C18.9 53.597 19.3027 54 19.7997 54.0001C19.7998 54.0001 19.8 54.0001 19.8001 54.0001H28.8001C29.297 54.0002 29.7 53.5975 29.7001 53.1005C29.7001 53.1004 29.7001 53.1002 29.7001 53.1001V45.5582C29.6947 44.0059 28.8227 42.5866 27.4403 41.8804C29.2173 40.1459 29.2518 37.2994 27.5174 35.5224C26.4493 34.4281 24.8983 33.9517 23.4001 34.2577V15.8467L31.6622 11.5568C33.1432 10.9407 33.8443 9.24062 33.2282 7.75967ZM18 5.4001C19.4912 5.4001 20.7 6.60891 20.7 8.1001C20.7 9.59128 19.4912 10.8001 18 10.8001C16.5095 10.7985 15.3016 9.59061 15.3 8.1001C15.3 6.60891 16.5088 5.4001 18 5.4001ZM9.9 35.9667C11.3912 35.9667 12.6 37.1755 12.6 38.6667C12.6 40.1579 11.3912 41.3667 9.9 41.3667C8.40881 41.3667 7.2 40.1579 7.2 38.6667C7.20158 37.1762 8.40949 35.9684 9.9 35.9667ZM13.5 52.2001H6.3V45.5582C6.3018 44.2565 7.35671 43.2017 8.65856 43.2001H11.1414C12.4432 43.2017 13.4982 44.2565 13.5 45.5582V52.2001ZM27.9 45.5582V52.2001H20.7V45.5582C20.7018 44.2565 21.7567 43.2017 23.0586 43.2001H25.5414C26.8433 43.2017 27.8982 44.2565 27.9 45.5582ZM24.3 35.9667C25.7905 35.9683 26.9984 37.1762 27 38.6667C27 40.1579 25.7912 41.3667 24.3 41.3667C22.8088 41.3667 21.6 40.1579 21.6 38.6667C21.6 37.1755 22.8088 35.9667 24.3 35.9667ZM31.5813 9.2611C31.4609 9.57025 31.2135 9.81291 30.902 9.92732L22.0857 14.5011C21.7873 14.6559 21.6 14.9641 21.6 15.3001V35.0897C19.9142 36.3362 19.3302 38.5922 20.1996 40.5001H18.9V25.2001H17.1V40.5001H14.0004C14.2564 39.9342 14.3913 39.3211 14.3966 38.7001H14.4V16.2001C14.3999 15.703 13.9968 15.3001 13.4998 15.3002C13.1068 15.3003 12.7593 15.5554 12.6414 15.9303L9.954 24.482C9.75038 25.0436 9.12994 25.3339 8.56834 25.1301C8.52896 25.1158 8.49038 25.0993 8.4528 25.0805C7.93361 24.8122 7.71323 24.1858 7.95015 23.6514L10.3526 15.3704C11.0005 13.7065 12.5999 12.6079 14.3855 12.6001H20.7581C20.9023 12.6003 21.0445 12.5656 21.1725 12.4991L30.1176 7.85586C30.6542 7.63199 31.2728 7.86103 31.534 8.38056C31.6725 8.65438 31.6897 8.97388 31.5813 9.2611Z" fill="#241F1F"/>
</g>
</g>
<g clip-path="url(#clip11_2645_478)">
<g clip-path="url(#clip12_2645_478)">
<path d="M41.841 41.8804C43.6211 40.1461 43.6582 37.297 41.9239 35.517C40.1896 33.7369 37.3405 33.6998 35.5605 35.434C33.7804 37.1683 33.7432 40.0174 35.4775 41.7975C35.5049 41.8255 35.5326 41.8532 35.5606 41.8804C34.1783 42.5867 33.3062 44.006 33.3008 45.5583V53.1001C33.3007 53.5971 33.7034 54 34.2003 54.0001C34.2004 54.0001 34.2007 54.0001 34.2008 54.0001H43.2008C43.6977 54.0003 44.1007 53.5975 44.1008 53.1006C44.1008 53.1005 44.1008 53.1003 44.1008 53.1001V45.5583C44.0954 44.006 43.2234 42.5867 41.841 41.8804ZM38.7008 35.9667C40.192 35.9667 41.4008 37.1756 41.4008 38.6667C41.4008 40.1579 40.192 41.3667 38.7008 41.3667C37.2096 41.3667 36.0008 40.1579 36.0008 38.6667C36.0024 37.1762 37.2103 35.9684 38.7008 35.9667ZM42.3008 52.2001H35.1008V45.5583C35.1026 44.2565 36.1575 43.2017 37.4593 43.2001H39.9422C41.244 43.2017 42.299 44.2565 42.3008 45.5583V52.2001Z" fill="black"/>
</g>
</g>
<g clip-path="url(#clip13_2645_478)">
<g clip-path="url(#clip14_2645_478)">
<path d="M56.2394 41.8804C58.0195 40.1461 58.0566 37.297 56.3223 35.517C54.588 33.7369 51.739 33.6998 49.9589 35.434C48.1788 37.1683 48.1417 40.0174 49.876 41.7975C49.9033 41.8255 49.931 41.8532 49.959 41.8804C48.5767 42.5867 47.7046 44.006 47.6992 45.5583V53.1001C47.6991 53.5971 48.1019 54 48.5988 54.0001C48.5989 54.0001 48.5991 54.0001 48.5992 54.0001H57.5992C58.0961 54.0003 58.4991 53.5975 58.4992 53.1006C58.4992 53.1005 58.4992 53.1003 58.4992 53.1001V45.5583C58.4938 44.006 57.6218 42.5867 56.2394 41.8804ZM53.0992 35.9667C54.5904 35.9667 55.7992 37.1756 55.7992 38.6667C55.7992 40.1579 54.5904 41.3667 53.0992 41.3667C51.608 41.3667 50.3992 40.1579 50.3992 38.6667C50.4008 37.1762 51.6087 35.9684 53.0992 35.9667ZM56.6992 52.2001H49.4992V45.5583C49.501 44.2565 50.5559 43.2017 51.8578 43.2001H54.3407C55.6424 43.2017 56.6974 44.2565 56.6992 45.5583V52.2001Z" fill="#241F1F"/>
</g>
</g>
</g>
<defs>
<filter id="filter0_d_2645_478" x="0.5" y="0" width="62" height="62" filterUnits="userSpaceOnUse" color-interpolation-filters="sRGB">
<feFlood flood-opacity="0" result="BackgroundImageFix"/>
<feColorMatrix in="SourceAlpha" type="matrix" values="0 0 0 0 0 0 0 0 0 0 0 0 0 0 0 0 0 0 127 0" result="hardAlpha"/>
<feOffset dy="4"/>
<feGaussianBlur stdDeviation="2"/>
<feComposite in2="hardAlpha" operator="out"/>
<feColorMatrix type="matrix" values="0 0 0 0 0 0 0 0 0 0 0 0 0 0 0 0 0 0 0.25 0"/>
<feBlend mode="normal" in2="BackgroundImageFix" result="effect1_dropShadow_2645_478"/>
<feBlend mode="normal" in="SourceGraphic" in2="effect1_dropShadow_2645_478" result="shape"/>
</filter>
<clipPath id="clip0_2645_478">
<rect width="54" height="54" fill="white" transform="translate(4.5)"/>
</clipPath>
<clipPath id="clip1_2645_478">
<rect width="54" height="23.4" fill="white" transform="translate(4.5)"/>
</clipPath>
<clipPath id="clip2_2645_478">
<rect width="54" height="23.4" fill="white" transform="translate(4.5)"/>
</clipPath>
<clipPath id="clip3_2645_478">
<rect width="18" height="1.8" fill="white" transform="translate(34.1992 4.5)"/>
</clipPath>
<clipPath id="clip4_2645_478">
<rect width="18" height="1.8" fill="white" transform="translate(34.1992 4.5)"/>
</clipPath>
<clipPath id="clip5_2645_478">
<rect width="18" height="1.8" fill="white" transform="translate(36.9004 9.8999)"/>
</clipPath>
<clipPath id="clip6_2645_478">
<rect width="18" height="1.8" fill="white" transform="translate(36.9004 9.8999)"/>
</clipPath>
<clipPath id="clip7_2645_478">
<rect width="18" height="1.8" fill="white" transform="translate(33.3008 15.2998)"/>
</clipPath>
<clipPath id="clip8_2645_478">
<rect width="18" height="1.8" fill="white" transform="translate(33.3008 15.2998)"/>
</clipPath>
<clipPath id="clip9_2645_478">
<rect width="28.9517" height="50.4" fill="white" transform="translate(4.5 3.6001)"/>
</clipPath>
<clipPath id="clip10_2645_478">
<rect width="28.9517" height="50.4" fill="white" transform="translate(4.5 3.6001)"/>
</clipPath>
<clipPath id="clip11_2645_478">
<rect width="10.8" height="19.8429" fill="white" transform="translate(33.3008 34.1572)"/>
</clipPath>
<clipPath id="clip12_2645_478">
<rect width="10.8" height="19.8429" fill="white" transform="translate(33.3008 34.1572)"/>
</clipPath>
<clipPath id="clip13_2645_478">
<rect width="10.8" height="19.8429" fill="white" transform="translate(47.6992 34.1572)"/>
</clipPath>
<clipPath id="clip14_2645_478">
<rect width="10.8" height="19.8429" fill="white" transform="translate(47.6992 34.1572)"/>
</clipPath>
</defs>
</svg>
